<svg width="45" height="65" viewBox="0 0 45 65" fill="none" xmlns="http://www.w3.org/2000/svg">
<path d="M-5.04931e-05 50.8243V42.3561H3.39057C4.01356 42.3561 4.53318 42.4484 4.94943 42.6331C5.36567 42.8178 5.67855 43.0742 5.88805 43.4022C6.09755 43.7275 6.2023 44.1024 6.2023 44.5269C6.2023 44.8577 6.13614 45.1485 6.00383 45.3993C5.87151 45.6474 5.68958 45.8514 5.45802 46.0113C5.22922 46.1684 4.96735 46.2801 4.67239 46.3462V46.4289C4.99491 46.4427 5.29676 46.5337 5.57793 46.7018C5.86186 46.87 6.09204 47.1057 6.26846 47.4089C6.44488 47.7094 6.5331 48.0677 6.5331 48.484C6.5331 48.9333 6.42145 49.3344 6.19817 49.6872C5.97764 50.0373 5.65098 50.3144 5.2182 50.5184C4.78541 50.7223 4.25201 50.8243 3.61799 50.8243H-5.04931e-05ZM1.79036 49.3606H3.24998C3.74893 49.3606 4.1128 49.2655 4.3416 49.0753C4.57039 48.8823 4.68479 48.6259 4.68479 48.3062C4.68479 48.0719 4.62828 47.8651 4.51526 47.6859C4.40224 47.5068 4.24098 47.3662 4.03148 47.2642C3.82473 47.1622 3.57802 47.1112 3.29133 47.1112H1.79036V49.3606ZM1.79036 45.8997H3.11767C3.363 45.8997 3.58077 45.8569 3.77098 45.7715C3.96394 45.6833 4.11556 45.5592 4.22582 45.3993C4.33884 45.2395 4.39535 45.0479 4.39535 44.8246C4.39535 44.5186 4.28646 44.2719 4.06869 44.0844C3.85368 43.897 3.5477 43.8033 3.15075 43.8033H1.79036V45.8997ZM7.66502 50.8243V44.4731H9.42649V50.8243H7.66502ZM8.54989 43.6544C8.28802 43.6544 8.06335 43.5676 7.8759 43.3939C7.69121 43.2175 7.59887 43.0066 7.59887 42.7613C7.59887 42.5187 7.69121 42.3106 7.8759 42.1369C8.06335 41.9605 8.28802 41.8723 8.54989 41.8723C8.81177 41.8723 9.03506 41.9605 9.21975 42.1369C9.4072 42.3106 9.50092 42.5187 9.50092 42.7613C9.50092 43.0066 9.4072 43.2175 9.21975 43.3939C9.03506 43.5676 8.81177 43.6544 8.54989 43.6544ZM16.1219 46.2842L14.5093 46.3835C14.4818 46.2456 14.4225 46.1216 14.3315 46.0113C14.2406 45.8983 14.1206 45.8087 13.9718 45.7425C13.8257 45.6736 13.6506 45.6392 13.4467 45.6392C13.1737 45.6392 12.9436 45.6971 12.7561 45.8128C12.5687 45.9259 12.4749 46.0775 12.4749 46.2677C12.4749 46.4193 12.5356 46.5475 12.6569 46.6522C12.7782 46.757 12.9863 46.841 13.2813 46.9045L14.4308 47.136C15.0482 47.2628 15.5086 47.4668 15.8118 47.748C16.115 48.0291 16.2667 48.3985 16.2667 48.8561C16.2667 49.2724 16.144 49.6376 15.8986 49.9519C15.6561 50.2661 15.3225 50.5115 14.898 50.6879C14.4762 50.8616 13.9897 50.9484 13.4384 50.9484C12.5976 50.9484 11.9278 50.7733 11.4288 50.4233C10.9326 50.0704 10.6418 49.5908 10.5564 48.9843L12.2889 48.8933C12.3413 49.1497 12.4681 49.3454 12.6693 49.4805C12.8705 49.6128 13.1283 49.679 13.4425 49.679C13.7513 49.679 13.9993 49.6197 14.1868 49.5012C14.377 49.3799 14.4735 49.2241 14.4762 49.0339C14.4735 48.874 14.4059 48.7431 14.2736 48.6411C14.1413 48.5364 13.9373 48.4564 13.6617 48.4013L12.5618 48.1821C11.9415 48.0581 11.4798 47.8431 11.1766 47.5371C10.8761 47.2311 10.7259 46.841 10.7259 46.3669C10.7259 45.9589 10.8361 45.6075 11.0567 45.3125C11.28 45.0176 11.5928 44.7901 11.9953 44.6303C12.4005 44.4704 12.8747 44.3904 13.4177 44.3904C14.2199 44.3904 14.8511 44.56 15.3115 44.899C15.7746 45.2381 16.0447 45.6998 16.1219 46.2842ZM20.2703 50.9484C19.617 50.9484 19.0546 50.8161 18.5832 50.5514C18.1146 50.284 17.7535 49.9064 17.4999 49.4185C17.2463 48.9278 17.1195 48.3475 17.1195 47.6777C17.1195 47.0244 17.2463 46.451 17.4999 45.9576C17.7535 45.4641 18.1105 45.0796 18.5708 44.8039C19.0339 44.5283 19.577 44.3904 20.2 44.3904C20.619 44.3904 21.009 44.458 21.3702 44.593C21.734 44.7254 22.051 44.9252 22.3212 45.1926C22.5941 45.46 22.8063 45.7963 22.958 46.2015C23.1096 46.604 23.1854 47.0754 23.1854 47.6157V48.0994H17.8224V47.0078H21.5273C21.5273 46.7542 21.4722 46.5296 21.3619 46.3338C21.2516 46.1381 21.0986 45.9851 20.9029 45.8749C20.71 45.7618 20.4853 45.7053 20.2289 45.7053C19.9615 45.7053 19.7245 45.7674 19.5177 45.8914C19.3137 46.0127 19.1539 46.1767 19.0381 46.3835C18.9223 46.5874 18.863 46.8149 18.8603 47.0657V48.1036C18.8603 48.4178 18.9182 48.6894 19.0339 48.9181C19.1525 49.1469 19.3192 49.3234 19.5343 49.4474C19.7493 49.5715 20.0043 49.6335 20.2992 49.6335C20.4949 49.6335 20.6741 49.6059 20.8368 49.5508C20.9994 49.4957 21.1386 49.413 21.2544 49.3027C21.3702 49.1924 21.4584 49.0574 21.519 48.8975L23.1482 49.005C23.0655 49.3964 22.8959 49.7382 22.6396 50.0304C22.386 50.3199 22.0579 50.5459 21.6555 50.7086C21.2558 50.8684 20.794 50.9484 20.2703 50.9484ZM24.3349 50.8243V44.4731H26.0426V45.5813H26.1088C26.2245 45.1871 26.4189 44.8894 26.6918 44.6881C26.9647 44.4842 27.2789 44.3822 27.6345 44.3822C27.7227 44.3822 27.8178 44.3877 27.9198 44.3987C28.0218 44.4097 28.1114 44.4249 28.1886 44.4442V46.0072C28.1059 45.9824 27.9915 45.9603 27.8454 45.941C27.6993 45.9217 27.5656 45.9121 27.4443 45.9121C27.1852 45.9121 26.9537 45.9686 26.7497 46.0816C26.5484 46.1919 26.3886 46.3462 26.27 46.5447C26.1542 46.7432 26.0964 46.972 26.0964 47.2311V50.8243H24.3349ZM29.0993 50.8243V44.4731H30.8608V50.8243H29.0993ZM29.9842 43.6544C29.7223 43.6544 29.4977 43.5676 29.3102 43.3939C29.1255 43.2175 29.0332 43.0066 29.0332 42.7613C29.0332 42.5187 29.1255 42.3106 29.3102 42.1369C29.4977 41.9605 29.7223 41.8723 29.9842 41.8723C30.2461 41.8723 30.4694 41.9605 30.654 42.1369C30.8415 42.3106 30.9352 42.5187 30.9352 42.7613C30.9352 43.0066 30.8415 43.2175 30.654 43.3939C30.4694 43.5676 30.2461 43.6544 29.9842 43.6544ZM35.1415 50.9484C34.4909 50.9484 33.9313 50.8106 33.4627 50.5349C32.9968 50.2565 32.6385 49.8706 32.3876 49.3771C32.1395 48.8837 32.0155 48.3158 32.0155 47.6735C32.0155 47.023 32.1409 46.4524 32.3917 45.9617C32.6453 45.4683 33.0051 45.0837 33.471 44.8081C33.9368 44.5296 34.4909 44.3904 35.1332 44.3904C35.6873 44.3904 36.1724 44.491 36.5887 44.6923C37.0049 44.8935 37.3343 45.1761 37.5769 45.5399C37.8195 45.9038 37.9532 46.3311 37.978 46.8218H36.3158C36.2689 46.5047 36.1449 46.2498 35.9436 46.0568C35.7451 45.8611 35.4846 45.7632 35.1621 45.7632C34.8892 45.7632 34.6508 45.8376 34.4468 45.9865C34.2456 46.1326 34.0884 46.3462 33.9754 46.6274C33.8624 46.9086 33.8059 47.249 33.8059 47.6487C33.8059 48.054 33.861 48.3985 33.9713 48.6825C34.0843 48.9664 34.2428 49.1828 34.4468 49.3316C34.6508 49.4805 34.8892 49.5549 35.1621 49.5549C35.3634 49.5549 35.5439 49.5136 35.7038 49.4309C35.8664 49.3482 36.0001 49.2283 36.1049 49.0711C36.2124 48.9113 36.2827 48.7197 36.3158 48.4964H37.978C37.9504 48.9816 37.8181 49.4088 37.581 49.7782C37.3467 50.1448 37.0228 50.4315 36.6093 50.6383C36.1959 50.845 35.7066 50.9484 35.1415 50.9484ZM40.9169 50.9443C40.5117 50.9443 40.1505 50.874 39.8335 50.7334C39.5165 50.59 39.2657 50.3791 39.081 50.1007C38.899 49.8196 38.8081 49.4695 38.8081 49.0505C38.8081 48.6976 38.8729 48.4013 39.0024 48.1615C39.132 47.9216 39.3084 47.7287 39.5317 47.5826C39.755 47.4365 40.0086 47.3262 40.2925 47.2518C40.5792 47.1774 40.8797 47.125 41.1939 47.0947C41.5633 47.0561 41.861 47.0202 42.0871 46.9871C42.3131 46.9513 42.4771 46.8989 42.5791 46.83C42.6811 46.7611 42.7321 46.6591 42.7321 46.524V46.4992C42.7321 46.2374 42.6494 46.0347 42.484 45.8914C42.3214 45.7481 42.0898 45.6764 41.7893 45.6764C41.4723 45.6764 41.2201 45.7467 41.0327 45.8873C40.8452 46.0251 40.7212 46.1988 40.6605 46.4083L39.0314 46.2759C39.1141 45.89 39.2767 45.5565 39.5193 45.2753C39.7619 44.9914 40.0747 44.7736 40.4579 44.622C40.8438 44.4676 41.2904 44.3904 41.7976 44.3904C42.1505 44.3904 42.4881 44.4318 42.8107 44.5145C43.1359 44.5972 43.424 44.7254 43.6749 44.899C43.9285 45.0727 44.1283 45.296 44.2744 45.5689C44.4205 45.839 44.4936 46.1629 44.4936 46.5406V50.8243H42.8231V49.9436H42.7734C42.6715 50.1421 42.535 50.3171 42.3641 50.4687C42.1932 50.6176 41.9878 50.7347 41.748 50.8202C41.5082 50.9029 41.2311 50.9443 40.9169 50.9443ZM41.4213 49.7286C41.6805 49.7286 41.9093 49.6776 42.1077 49.5756C42.3062 49.4708 42.462 49.3303 42.575 49.1538C42.688 48.9774 42.7445 48.7776 42.7445 48.5543V47.8803C42.6894 47.9161 42.6136 47.9492 42.5171 47.9795C42.4234 48.0071 42.3172 48.0333 42.1987 48.0581C42.0802 48.0801 41.9616 48.1008 41.8431 48.1201C41.7246 48.1367 41.6171 48.1518 41.5206 48.1656C41.3138 48.1959 41.1333 48.2442 40.9789 48.3103C40.8245 48.3765 40.7046 48.4661 40.6192 48.5791C40.5337 48.6894 40.491 48.8272 40.491 48.9926C40.491 49.2324 40.5778 49.4157 40.7515 49.5425C40.9279 49.6666 41.1512 49.7286 41.4213 49.7286ZM2.72795 64.9794C2.24555 64.9794 1.80863 64.8553 1.41719 64.6072C1.02851 64.3564 0.719768 63.9884 0.49097 63.5032C0.264929 63.0153 0.151908 62.4171 0.151908 61.7087C0.151908 60.9809 0.269063 60.3759 0.503375 59.8935C0.737686 59.4083 1.04918 59.0458 1.43786 58.806C1.8293 58.5634 2.25795 58.4421 2.72382 58.4421C3.07942 58.4421 3.37575 58.5027 3.61282 58.624C3.85265 58.7426 4.04561 58.8914 4.19171 59.0706C4.34056 59.247 4.45358 59.4207 4.53077 59.5916H4.58452V56.4077H6.34186V64.876H4.6052V63.8588H4.53077C4.44807 64.0352 4.33092 64.2103 4.1793 64.384C4.03045 64.5549 3.83611 64.6968 3.59628 64.8099C3.35921 64.9229 3.06977 64.9794 2.72795 64.9794ZM3.28616 63.5776C3.57009 63.5776 3.80992 63.5005 4.00564 63.3461C4.20411 63.189 4.35573 62.9698 4.46048 62.6886C4.56798 62.4075 4.62174 62.0781 4.62174 61.7004C4.62174 61.3227 4.56936 60.9947 4.46461 60.7163C4.35986 60.4379 4.20825 60.2229 4.00977 60.0713C3.8113 59.9196 3.57009 59.8438 3.28616 59.8438C2.99672 59.8438 2.75276 59.9224 2.55429 60.0795C2.35581 60.2366 2.20558 60.4544 2.10358 60.7328C2.00159 61.0113 1.95059 61.3338 1.95059 61.7004C1.95059 62.0698 2.00159 62.3964 2.10358 62.6804C2.20833 62.9615 2.35857 63.1821 2.55429 63.342C2.75276 63.4991 2.99672 63.5776 3.28616 63.5776ZM10.6845 65.0001C10.0312 65.0001 9.46888 64.8677 8.9975 64.6031C8.52888 64.3357 8.16776 63.9581 7.91415 63.4701C7.66055 62.9795 7.53374 62.3992 7.53374 61.7293C7.53374 61.076 7.66055 60.5027 7.91415 60.0092C8.16776 59.5158 8.52474 59.1313 8.98509 58.8556C9.4482 58.5799 9.99125 58.4421 10.6142 58.4421C11.0332 58.4421 11.4233 58.5096 11.7844 58.6447C12.1483 58.777 12.4653 58.9769 12.7354 59.2443C13.0084 59.5117 13.2206 59.848 13.3722 60.2532C13.5238 60.6557 13.5996 61.127 13.5996 61.6673V62.1511H8.23668V61.0595H11.9415C11.9415 60.8059 11.8864 60.5812 11.7762 60.3855C11.6659 60.1898 11.5129 60.0368 11.3172 59.9265C11.1242 59.8135 10.8996 59.757 10.6432 59.757C10.3758 59.757 10.1387 59.819 9.93199 59.9431C9.728 60.0644 9.56811 60.2284 9.45234 60.4351C9.33656 60.6391 9.27729 60.8665 9.27454 61.1174V62.1552C9.27454 62.4695 9.33242 62.741 9.4482 62.9698C9.56674 63.1986 9.73351 63.375 9.94852 63.4991C10.1635 63.6231 10.4185 63.6852 10.7135 63.6852C10.9092 63.6852 11.0884 63.6576 11.251 63.6025C11.4137 63.5473 11.5529 63.4646 11.6686 63.3544C11.7844 63.2441 11.8726 63.109 11.9333 62.9491L13.5624 63.0567C13.4797 63.4481 13.3102 63.7899 13.0538 64.0821C12.8002 64.3716 12.4722 64.5976 12.0697 64.7602C11.67 64.9201 11.2083 65.0001 10.6845 65.0001ZM19.2055 56.4077V64.876H17.4441V56.4077H19.2055ZM23.511 65.0001C22.8577 65.0001 22.2953 64.8677 21.824 64.6031C21.3553 64.3357 20.9942 63.9581 20.7406 63.4701C20.487 62.9795 20.3602 62.3992 20.3602 61.7293C20.3602 61.076 20.487 60.5027 20.7406 60.0092C20.9942 59.5158 21.3512 59.1313 21.8116 58.8556C22.2747 58.5799 22.8177 58.4421 23.4407 58.4421C23.8597 58.4421 24.2498 58.5096 24.6109 58.6447C24.9748 58.777 25.2918 58.9769 25.5619 59.2443C25.8348 59.5117 26.0471 59.848 26.1987 60.2532C26.3503 60.6557 26.4261 61.127 26.4261 61.6673V62.1511H21.0631V61.0595H24.768C24.768 60.8059 24.7129 60.5812 24.6026 60.3855C24.4924 60.1898 24.3394 60.0368 24.1436 59.9265C23.9507 59.8135 23.726 59.757 23.4697 59.757C23.2023 59.757 22.9652 59.819 22.7585 59.9431C22.5545 60.0644 22.3946 60.2284 22.2788 60.4351C22.163 60.6391 22.1038 60.8665 22.101 61.1174V62.1552C22.101 62.4695 22.1589 62.741 22.2747 62.9698C22.3932 63.1986 22.56 63.375 22.775 63.4991C22.99 63.6231 23.245 63.6852 23.5399 63.6852C23.7357 63.6852 23.9148 63.6576 24.0775 63.6025C24.2401 63.5473 24.3793 63.4646 24.4951 63.3544C24.6109 63.2441 24.6991 63.109 24.7597 62.9491L26.3889 63.0567C26.3062 63.4481 26.1367 63.7899 25.8803 64.0821C25.6267 64.3716 25.2987 64.5976 24.8962 64.7602C24.4965 64.9201 24.0348 65.0001 23.511 65.0001ZM27.5756 64.876V58.5248H29.2544V59.6454H29.3288C29.4611 59.2732 29.6817 58.9796 29.9904 58.7646C30.2991 58.5496 30.6685 58.4421 31.0985 58.4421C31.5341 58.4421 31.9049 58.551 32.2108 58.7688C32.5168 58.9838 32.7208 59.276 32.8228 59.6454H32.889C33.0185 59.2815 33.2528 58.9907 33.5919 58.7729C33.9337 58.5524 34.3376 58.4421 34.8034 58.4421C35.3961 58.4421 35.8771 58.6309 36.2465 59.0086C36.6186 59.3835 36.8047 59.9155 36.8047 60.6047V64.876H35.0474V60.952C35.0474 60.5991 34.9537 60.3345 34.7662 60.1581C34.5788 59.9817 34.3444 59.8935 34.0633 59.8935C33.7435 59.8935 33.494 59.9954 33.3149 60.1994C33.1357 60.4007 33.0461 60.6667 33.0461 60.9975V64.876H31.3384V60.9148C31.3384 60.6033 31.2488 60.3552 31.0696 60.1705C30.8932 59.9858 30.6602 59.8935 30.3708 59.8935C30.1751 59.8935 29.9987 59.9431 29.8415 60.0423C29.6872 60.1388 29.5645 60.2752 29.4735 60.4517C29.3826 60.6253 29.3371 60.8293 29.3371 61.0636V64.876H27.5756ZM39.9576 61.2042V64.876H38.1961V58.5248H39.8749V59.6454H39.9493C40.0899 59.276 40.3256 58.9838 40.6564 58.7688C40.9872 58.551 41.3883 58.4421 41.8596 58.4421C42.3007 58.4421 42.6852 58.5386 43.0133 58.7315C43.3413 58.9245 43.5963 59.2002 43.7782 59.5585C43.9602 59.9141 44.0511 60.3386 44.0511 60.8321V64.876H42.2897V61.1463C42.2924 60.7576 42.1932 60.4544 41.9919 60.2366C41.7907 60.0161 41.5137 59.9059 41.1608 59.9059C40.9238 59.9059 40.7143 59.9569 40.5323 60.0588C40.3532 60.1608 40.2126 60.3097 40.1106 60.5054C40.0113 60.6984 39.9603 60.9313 39.9576 61.2042Z" fill="#C1DF6C"/>
<path d="M14.6515 2.91085V16.0231C14.6515 19.6516 16.7274 22.9648 20.0048 24.5674L25.3251 27.1689L30.6454 24.5674C33.9228 22.9648 35.9987 19.6516 35.9987 16.0231V2.91085H14.6515Z" fill="#C1DF6C" fill-opacity="0.66" stroke="#C1DF6C" stroke-width="5.80053"/>
</svg>
