<svg width="111" height="15" viewBox="0 0 111 15" fill="none" xmlns="http://www.w3.org/2000/svg">
<path d="M-2.80142e-06 14.5454V-4.48227e-05H5.45454C6.57197 -4.48227e-05 7.50947 0.194084 8.26704 0.582341C9.02935 0.970599 9.60464 1.51511 9.9929 2.21586C10.3859 2.91189 10.5824 3.72391 10.5824 4.65194C10.5824 5.58471 10.3835 6.39437 9.98579 7.08092C9.5928 7.76274 9.01278 8.29067 8.24574 8.66473C7.47869 9.03405 6.53646 9.21871 5.41903 9.21871H1.53409V7.03121H5.06392C5.71733 7.03121 6.25236 6.94124 6.66903 6.76132C7.0857 6.57666 7.39346 6.30914 7.59233 5.95876C7.79593 5.60365 7.89772 5.16804 7.89772 4.65194C7.89772 4.13585 7.79593 3.6955 7.59233 3.33092C7.38873 2.9616 7.0786 2.68225 6.66193 2.49285C6.24526 2.29872 5.70786 2.20166 5.04971 2.20166H2.63494V14.5454H-2.80142e-06ZM7.5142 7.9545L11.1151 14.5454H8.17471L4.63778 7.9545H7.5142ZM15.2964 14.7585C14.2311 14.7585 13.3078 14.5241 12.5266 14.0554C11.7453 13.5866 11.1392 12.9308 10.7084 12.088C10.2822 11.2452 10.0692 10.2604 10.0692 9.13348C10.0692 8.00658 10.2822 7.01937 10.7084 6.17183C11.1392 5.32429 11.7453 4.66615 12.5266 4.1974C13.3078 3.72865 14.2311 3.49427 15.2964 3.49427C16.3618 3.49427 17.2851 3.72865 18.0663 4.1974C18.8476 4.66615 19.4513 5.32429 19.8774 6.17183C20.3083 7.01937 20.5237 8.00658 20.5237 9.13348C20.5237 10.2604 20.3083 11.2452 19.8774 12.088C19.4513 12.9308 18.8476 13.5866 18.0663 14.0554C17.2851 14.5241 16.3618 14.7585 15.2964 14.7585ZM15.3107 12.6988C15.8883 12.6988 16.3713 12.5402 16.7595 12.223C17.1478 11.901 17.4366 11.4701 17.626 10.9304C17.8201 10.3906 17.9172 9.78925 17.9172 9.12638C17.9172 8.45876 17.8201 7.85507 17.626 7.3153C17.4366 6.77079 17.1478 6.33755 16.7595 6.01558C16.3713 5.69361 15.8883 5.53263 15.3107 5.53263C14.7188 5.53263 14.2264 5.69361 13.8334 6.01558C13.4451 6.33755 13.1539 6.77079 12.9598 7.3153C12.7704 7.85507 12.6757 8.45876 12.6757 9.12638C12.6757 9.78925 12.7704 10.3906 12.9598 10.9304C13.1539 11.4701 13.4451 11.901 13.8334 12.223C14.2264 12.5402 14.7188 12.6988 15.3107 12.6988ZM20.5059 14.5454V3.63632H22.9633V5.49001H23.0911C23.3184 4.86501 23.6948 4.37732 24.2204 4.02694C24.7459 3.67183 25.3733 3.49427 26.1025 3.49427C26.8411 3.49427 27.4638 3.6742 27.9704 4.03405C28.4817 4.38916 28.8416 4.87448 29.0499 5.49001H29.1636C29.405 4.88395 29.8122 4.401 30.3852 4.04115C30.9628 3.67657 31.647 3.49427 32.4377 3.49427C33.4415 3.49427 34.2606 3.81151 34.8951 4.44598C35.5296 5.08045 35.8468 6.00611 35.8468 7.22297V14.5454H33.2687V7.62069C33.2687 6.94361 33.0888 6.44882 32.7289 6.13632C32.3691 5.81908 31.9287 5.66047 31.4079 5.66047C30.7876 5.66047 30.3023 5.8546 29.9519 6.24285C29.6063 6.62638 29.4334 7.1259 29.4334 7.74143V14.5454H26.9121V7.51416C26.9121 6.95071 26.7417 6.5009 26.4008 6.16473C26.0646 5.82855 25.6243 5.66047 25.0798 5.66047C24.7104 5.66047 24.3743 5.75516 24.0712 5.94456C23.7682 6.12922 23.5267 6.392 23.3468 6.73291C23.1669 7.06908 23.0769 7.46208 23.0769 7.91189V14.5454H20.5059ZM39.3943 14.7656C38.703 14.7656 38.0804 14.6425 37.5264 14.3963C36.9772 14.1453 36.5416 13.776 36.2196 13.2883C35.9024 12.8006 35.7437 12.1993 35.7437 11.4843C35.7437 10.8688 35.8574 10.3598 36.0847 9.95734C36.3119 9.55488 36.6221 9.23291 37.0151 8.99143C37.408 8.74996 37.8508 8.56766 38.3432 8.44456C38.8403 8.31672 39.3541 8.22439 39.8844 8.16757C40.5236 8.10128 41.042 8.0421 41.4398 7.99001C41.8375 7.93319 42.1263 7.84797 42.3062 7.73433C42.4909 7.61596 42.5832 7.43367 42.5832 7.18746V7.14484C42.5832 6.6098 42.4246 6.1955 42.1074 5.90194C41.7902 5.60838 41.3332 5.4616 40.7366 5.4616C40.1069 5.4616 39.6074 5.59891 39.2381 5.87354C38.8735 6.14816 38.6273 6.47249 38.4994 6.84655L36.0989 6.50564C36.2883 5.84276 36.6008 5.28878 37.0364 4.84371C37.472 4.39389 38.0046 4.05772 38.6344 3.83518C39.2641 3.60791 39.9601 3.49427 40.7224 3.49427C41.248 3.49427 41.7712 3.55583 42.292 3.67893C42.8129 3.80204 43.2887 4.00564 43.7196 4.28973C44.1505 4.56908 44.4961 4.95024 44.7565 5.43319C45.0217 5.91615 45.1543 6.51984 45.1543 7.24427V14.5454H42.6827V13.0468H42.5974C42.4412 13.3499 42.221 13.634 41.9369 13.8991C41.6576 14.1595 41.3048 14.3702 40.8787 14.5312C40.4573 14.6875 39.9625 14.7656 39.3943 14.7656ZM40.0619 12.8764C40.578 12.8764 41.0255 12.7746 41.4043 12.571C41.783 12.3626 42.0742 12.088 42.2778 11.7471C42.4862 11.4062 42.5903 11.0345 42.5903 10.6321V9.34655C42.5098 9.41283 42.3725 9.47439 42.1784 9.53121C41.989 9.58802 41.7759 9.63774 41.5392 9.68035C41.3025 9.72297 41.0681 9.76085 40.8361 9.79399C40.6041 9.82713 40.4028 9.85554 40.2324 9.87922C39.8489 9.9313 39.5056 10.0165 39.2026 10.1349C38.8995 10.2533 38.6604 10.419 38.4852 10.6321C38.31 10.8404 38.2224 11.1103 38.2224 11.4417C38.2224 11.9152 38.3953 12.2727 38.7409 12.5142C39.0866 12.7556 39.5269 12.8764 40.0619 12.8764ZM48.1105 8.15336V14.5454H45.5395V3.63632H47.9969V5.49001H48.1247C48.3757 4.87922 48.7758 4.39389 49.325 4.03405C49.879 3.6742 50.5632 3.49427 51.3776 3.49427C52.1304 3.49427 52.7862 3.65526 53.3449 3.97723C53.9083 4.2992 54.3439 4.76558 54.6517 5.37638C54.9642 5.98717 55.1181 6.72817 55.1134 7.59939V14.5454H52.5423V7.99711C52.5423 7.26795 52.3529 6.6974 51.9741 6.28547C51.6001 5.87353 51.0816 5.66757 50.4187 5.66757C49.9689 5.66757 49.5688 5.767 49.2185 5.96586C48.8728 6.15999 48.6006 6.44172 48.4017 6.81104C48.2076 7.18035 48.1105 7.6278 48.1105 8.15336ZM58.4016 14.5454V-4.48227e-05H63.8561C64.9735 -4.48227e-05 65.911 0.194084 66.6686 0.582341C67.4309 0.970599 68.0062 1.51511 68.3945 2.21586C68.7874 2.91189 68.9839 3.72391 68.9839 4.65194C68.9839 5.58471 68.7851 6.39437 68.3874 7.08092C67.9944 7.76274 67.4143 8.29067 66.6473 8.66473C65.8803 9.03405 64.938 9.21871 63.8206 9.21871H59.9356V7.03121H63.4655C64.1189 7.03121 64.6539 6.94124 65.0706 6.76132C65.4873 6.57666 65.795 6.30914 65.9939 5.95876C66.1975 5.60365 66.2993 5.16804 66.2993 4.65194C66.2993 4.13585 66.1975 3.6955 65.9939 3.33092C65.7903 2.9616 65.4802 2.68225 65.0635 2.49285C64.6468 2.29872 64.1094 2.20166 63.4513 2.20166H61.0365V14.5454H58.4016ZM65.9158 7.9545L69.5166 14.5454H66.5763L63.0393 7.9545H65.9158ZM73.698 14.7585C72.6327 14.7585 71.7094 14.5241 70.9281 14.0554C70.1469 13.5866 69.5408 12.9308 69.1099 12.088C68.6838 11.2452 68.4707 10.2604 68.4707 9.13348C68.4707 8.00658 68.6838 7.01937 69.1099 6.17183C69.5408 5.32429 70.1469 4.66615 70.9281 4.1974C71.7094 3.72865 72.6327 3.49427 73.698 3.49427C74.7633 3.49427 75.6866 3.72865 76.4679 4.1974C77.2491 4.66615 77.8528 5.32429 78.279 6.17183C78.7098 7.01937 78.9253 8.00658 78.9253 9.13348C78.9253 10.2604 78.7098 11.2452 78.279 12.088C77.8528 12.9308 77.2491 13.5866 76.4679 14.0554C75.6866 14.5241 74.7633 14.7585 73.698 14.7585ZM73.7122 12.6988C74.2899 12.6988 74.7728 12.5402 75.1611 12.223C75.5493 11.901 75.8382 11.4701 76.0276 10.9304C76.2217 10.3906 76.3187 9.78925 76.3187 9.12638C76.3187 8.45876 76.2217 7.85507 76.0276 7.3153C75.8382 6.77079 75.5493 6.33755 75.1611 6.01558C74.7728 5.69361 74.2899 5.53263 73.7122 5.53263C73.1204 5.53263 72.6279 5.69361 72.2349 6.01558C71.8467 6.33755 71.5555 6.77079 71.3614 7.3153C71.172 7.85507 71.0773 8.45876 71.0773 9.12638C71.0773 9.78925 71.172 10.3906 71.3614 10.9304C71.5555 11.4701 71.8467 11.901 72.2349 12.223C72.6279 12.5402 73.1204 12.6988 73.7122 12.6988ZM79.0211 14.5454V-4.48227e-05H81.5921V5.4403H81.6986C81.8312 5.17514 82.0183 4.89342 82.2597 4.59513C82.5012 4.2921 82.8279 4.03405 83.2398 3.82098C83.6518 3.60318 84.1773 3.49427 84.8165 3.49427C85.6594 3.49427 86.4193 3.70971 87.0964 4.14058C87.7782 4.56672 88.318 5.19882 88.7157 6.03689C89.1182 6.87022 89.3194 7.89295 89.3194 9.10507C89.3194 10.303 89.1229 11.321 88.7299 12.159C88.3369 12.9971 87.8019 13.6363 87.1248 14.0767C86.4477 14.517 85.6807 14.7372 84.8236 14.7372C84.1986 14.7372 83.6802 14.633 83.2683 14.4247C82.8563 14.2163 82.5249 13.9654 82.2739 13.6718C82.0277 13.3735 81.836 13.0918 81.6986 12.8267H81.5495V14.5454H79.0211ZM81.5424 9.09086C81.5424 9.79636 81.6418 10.4143 81.8407 10.9446C82.0443 11.4749 82.3355 11.8892 82.7143 12.1875C83.0978 12.481 83.5618 12.6278 84.1063 12.6278C84.6745 12.6278 85.1504 12.4763 85.5339 12.1733C85.9174 11.8655 86.2062 11.4465 86.4004 10.9161C86.5992 10.3811 86.6986 9.77268 86.6986 9.09086C86.6986 8.41378 86.6016 7.81246 86.4075 7.28689C86.2133 6.76132 85.9245 6.34939 85.541 6.05109C85.1575 5.7528 84.6792 5.60365 84.1063 5.60365C83.5571 5.60365 83.0907 5.74806 82.7072 6.03689C82.3236 6.32571 82.0325 6.73054 81.8336 7.25138C81.6395 7.77221 81.5424 8.38537 81.5424 9.09086ZM94.1347 14.7585C93.0409 14.7585 92.0963 14.5312 91.3008 14.0767C90.5101 13.6174 89.9017 12.9687 89.4756 12.1306C89.0494 11.2878 88.8364 10.2959 88.8364 9.15479C88.8364 8.03263 89.0494 7.04778 89.4756 6.20024C89.9064 5.34797 90.5078 4.68509 91.2795 4.2116C92.0513 3.73338 92.958 3.49427 93.9997 3.49427C94.6721 3.49427 95.3065 3.60318 95.9031 3.82098C96.5044 4.03405 97.0347 4.36549 97.494 4.8153C97.958 5.26511 98.3226 5.83802 98.5878 6.53405C98.8529 7.22533 98.9855 8.0492 98.9855 9.00564V9.79399H90.0437V8.06104H96.521C96.5163 7.56861 96.4097 7.13064 96.2014 6.74711C95.9931 6.35886 95.7019 6.05346 95.3278 5.83092C94.9585 5.60838 94.5276 5.49711 94.0352 5.49711C93.5097 5.49711 93.048 5.62496 92.6503 5.88064C92.2526 6.13158 91.9424 6.46302 91.7199 6.87496C91.5021 7.28215 91.3908 7.7296 91.3861 8.21729V9.73007C91.3861 10.3645 91.5021 10.909 91.7341 11.3636C91.9661 11.8134 92.2904 12.159 92.7071 12.4005C93.1238 12.6373 93.6115 12.7556 94.1702 12.7556C94.5442 12.7556 94.8828 12.7036 95.1858 12.5994C95.4888 12.4905 95.7516 12.3319 95.9741 12.1235C96.1967 11.9152 96.3648 11.6572 96.4784 11.3494L98.879 11.6193C98.7275 12.2537 98.4386 12.8077 98.0125 13.2812C97.5911 13.75 97.0513 14.1145 96.3932 14.375C95.735 14.6306 94.9822 14.7585 94.1347 14.7585ZM98.9606 14.5454V3.63632H101.453V5.4545H101.567C101.766 4.82477 102.107 4.33944 102.59 3.99854C103.078 3.65289 103.634 3.48007 104.259 3.48007C104.401 3.48007 104.56 3.48717 104.735 3.50138C104.915 3.51085 105.064 3.52742 105.182 3.55109V5.91615C105.073 5.87827 104.9 5.84513 104.664 5.81672C104.432 5.78357 104.207 5.767 103.989 5.767C103.52 5.767 103.099 5.8688 102.725 6.0724C102.355 6.27126 102.064 6.54825 101.851 6.90336C101.638 7.25848 101.532 7.66804 101.532 8.13206V14.5454H98.9606ZM110.724 3.63632V5.62496H104.452V3.63632H110.724ZM106.001 1.02268H108.572V11.2642C108.572 11.6098 108.624 11.875 108.728 12.0596C108.837 12.2395 108.979 12.3626 109.154 12.4289C109.329 12.4952 109.523 12.5284 109.736 12.5284C109.897 12.5284 110.044 12.5165 110.177 12.4929C110.314 12.4692 110.418 12.4479 110.489 12.4289L110.923 14.4389C110.785 14.4862 110.589 14.5383 110.333 14.5951C110.082 14.6519 109.774 14.6851 109.41 14.6946C108.766 14.7135 108.186 14.6164 107.67 14.4034C107.154 14.1856 106.744 13.8494 106.441 13.3948C106.143 12.9403 105.996 12.3721 106.001 11.6903V1.02268Z" fill="#C5C5C5"/>
</svg>
